<svg width="29" height="29" viewBox="0 0 29 29" fill="none" xmlns="http://www.w3.org/2000/svg">
<g id="Frame">
<g id="Group">
<path id="Vector" d="M22.1487 11.2533L19.8785 11.0018L20.2433 10.202C20.3053 10.0647 20.4057 9.94828 20.5323 9.86659C20.6588 9.7849 20.8063 9.74146 20.9569 9.74146C21.1076 9.74146 21.255 9.7849 21.3816 9.86659C21.5082 9.94828 21.6085 10.0647 21.6706 10.202L22.1487 11.2533ZM24.8176 17.264C24.7169 17.3556 24.6418 17.472 24.5997 17.6015C24.5576 17.731 24.5499 17.8692 24.5774 18.0026L25.205 21.034C25.2353 21.1813 25.2224 21.3342 25.1681 21.4744C25.1137 21.6147 25.0201 21.7363 24.8985 21.8247C24.7768 21.9131 24.6323 21.9646 24.4821 21.9731C24.332 21.9815 24.1826 21.9465 24.0518 21.8722L21.3444 20.3384C21.2295 20.2735 21.1002 20.2386 20.9683 20.237C20.8364 20.2354 20.7062 20.2672 20.5899 20.3294L20.0099 17.5222C19.9626 17.2882 20.0416 17.0465 20.2183 16.8856L23.9249 13.5189L26.6708 13.8247C26.8207 13.841 26.9627 13.9002 27.0797 13.9953C27.1967 14.0903 27.2838 14.2171 27.3305 14.3605C27.3771 14.5038 27.3814 14.6576 27.3428 14.8033C27.3041 14.949 27.2242 15.0805 27.1126 15.1819L24.8176 17.264ZM8.78147 16.8856C8.95819 17.0465 9.03726 17.2882 8.98991 17.5222L8.40537 20.3497L8.38498 20.3384C8.26721 20.2716 8.13411 20.2365 7.99869 20.2365C7.86328 20.2365 7.73018 20.2716 7.61241 20.3384L4.90498 21.8722C4.77422 21.9467 4.62476 21.9819 4.47451 21.9735C4.32427 21.9652 4.17961 21.9137 4.0579 21.8252C3.93618 21.7367 3.84256 21.615 3.78827 21.4747C3.73397 21.3343 3.7213 21.1813 3.75178 21.034L4.37709 18.0026C4.4052 17.8692 4.39781 17.7308 4.35567 17.6012C4.31353 17.4716 4.2381 17.3553 4.13694 17.264L1.84412 15.1819C1.73224 15.0808 1.65197 14.9495 1.61299 14.8039C1.57402 14.6582 1.578 14.5044 1.62445 14.361C1.67091 14.2175 1.75786 14.0906 1.87482 13.9955C1.99178 13.9003 2.13376 13.841 2.28366 13.8247L5.07037 13.5144L8.78147 16.8856ZM9.07826 11.0063L6.80584 11.2601L7.28616 10.202C7.34801 10.0648 7.44815 9.94844 7.57455 9.86678C7.70094 9.78513 7.84822 9.7417 7.99869 9.7417C8.14917 9.7417 8.29645 9.78513 8.42284 9.86678C8.54924 9.94844 8.64937 10.0648 8.71123 10.202L9.07826 11.0063Z" fill="white"/>
<path id="Vector_2" d="M19.9127 16.5504C19.7683 16.6827 19.6608 16.8501 19.6004 17.0363C19.5401 17.2225 19.529 17.4212 19.5683 17.613L20.6286 22.7492C20.655 22.876 20.6442 23.0078 20.5976 23.1287C20.551 23.2496 20.4704 23.3545 20.3657 23.4308C20.2609 23.5071 20.1364 23.5516 20.007 23.5588C19.8776 23.5661 19.7489 23.5359 19.6363 23.4719L15.0574 20.8755C14.8875 20.7789 14.6955 20.7282 14.5001 20.7282C14.3047 20.7282 14.1126 20.7789 13.9427 20.8755L9.36391 23.4719C9.25127 23.536 9.12251 23.5663 8.99308 23.5591C8.86366 23.5518 8.73907 23.5074 8.63429 23.4311C8.52951 23.3548 8.44898 23.2498 8.40238 23.1289C8.35577 23.0079 8.34508 22.8761 8.37157 22.7492L9.43188 17.613C9.47119 17.4212 9.46012 17.2225 9.39976 17.0363C9.33941 16.8501 9.23183 16.6827 9.08751 16.5504L5.20196 13.0206C5.10607 12.9333 5.03736 12.8203 5.00407 12.695C4.97077 12.5696 4.97429 12.4374 5.01422 12.314C5.05414 12.1907 5.12877 12.0815 5.22917 11.9994C5.32957 11.9174 5.45148 11.866 5.58032 11.8515L10.8116 11.2715C11.0055 11.249 11.1903 11.1769 11.3483 11.0622C11.5062 10.9475 11.6319 10.7941 11.7134 10.6167L13.8861 5.83401C13.9395 5.7159 14.0258 5.6157 14.1347 5.54541C14.2436 5.47513 14.3705 5.43774 14.5001 5.43774C14.6297 5.43774 14.7566 5.47513 14.8655 5.54541C14.9744 5.6157 15.0607 5.7159 15.1141 5.83401L17.2868 10.6167C17.3682 10.7941 17.494 10.9475 17.6519 11.0622C17.8099 11.1769 17.9947 11.249 18.1885 11.2715L23.4199 11.8515C23.5487 11.8659 23.6707 11.9173 23.7712 11.9993C23.8717 12.0813 23.9463 12.1906 23.9863 12.3139C24.0262 12.4373 24.0297 12.5696 23.9963 12.695C23.963 12.8203 23.8942 12.9333 23.7982 13.0206L19.9127 16.5504Z" fill="white"/>
</g>
</g>
</svg>
