<svg width="81" height="81" viewBox="0 0 81 81" fill="none" xmlns="http://www.w3.org/2000/svg">
<g id="Frame">
<g id="Group">
<g id="Group_2">
<path id="Vector" fill-rule="evenodd" clip-rule="evenodd" d="M40.5 8.4375C31.9965 8.4375 23.8413 11.8155 17.8284 17.8284C11.8155 23.8413 8.4375 31.9965 8.4375 40.5C8.4375 49.0035 11.8155 57.1587 17.8284 63.1716C23.8413 69.1845 31.9965 72.5625 40.5 72.5625C49.0035 72.5625 57.1587 69.1845 63.1716 63.1716C69.1845 57.1587 72.5625 49.0035 72.5625 40.5C72.5625 31.9965 69.1845 23.8413 63.1716 17.8284C57.1587 11.8155 49.0035 8.4375 40.5 8.4375ZM5.0625 40.5C5.0625 20.9284 20.9284 5.0625 40.5 5.0625C60.0716 5.0625 75.9375 20.9284 75.9375 40.5C75.9375 60.0716 60.0716 75.9375 40.5 75.9375C20.9284 75.9375 5.0625 60.0716 5.0625 40.5Z" fill="white" fill-opacity="0.65"/>
<path id="Vector_2" fill-rule="evenodd" clip-rule="evenodd" d="M39.6428 39.0487C39.896 38.8988 40.1841 38.8178 40.4783 38.8136C40.7725 38.8095 41.0627 38.8824 41.3201 39.025L56.5076 47.4625L54.8674 50.4123L42.1875 43.3687V62.4374H38.8125V40.4999C38.8129 40.2067 38.8897 39.9187 39.0353 39.6642C39.1808 39.4097 39.3902 39.1976 39.6428 39.0487Z" fill="white" fill-opacity="0.65"/>
</g>
</g>
</g>
</svg>
