<svg width="43" height="43" viewBox="0 0 43 43" fill="none" xmlns="http://www.w3.org/2000/svg">
<g id="Frame" clip-path="url(#clip0_5144_6543)">
<g id="Group">
<path id="Vector" d="M21.5 0C9.64544 0 0 9.64544 0 21.5V41.6562C0 42.398 0.602 43 1.34375 43H21.5C33.3546 43 43 33.3546 43 21.5C43 9.64544 33.3546 0 21.5 0ZM22.8438 26.875H12.0938C11.352 26.875 10.75 26.273 10.75 25.5312C10.75 24.7895 11.352 24.1875 12.0938 24.1875H22.8438C23.5855 24.1875 24.1875 24.7895 24.1875 25.5312C24.1875 26.273 23.5855 26.875 22.8438 26.875ZM30.9062 18.8125H12.0938C11.352 18.8125 10.75 18.2105 10.75 17.4688C10.75 16.727 11.352 16.125 12.0938 16.125H30.9062C31.648 16.125 32.25 16.727 32.25 17.4688C32.25 18.2105 31.648 18.8125 30.9062 18.8125Z" fill="#2E7D32"/>
</g>
</g>
<defs>
<clipPath id="clip0_5144_6543">
<rect width="43" height="43" fill="white"/>
</clipPath>
</defs>
</svg>
