<svg width="53" height="53" viewBox="0 0 53 53" fill="none" xmlns="http://www.w3.org/2000/svg">
<g id="Frame">
<g id="Group">
<path id="Vector" d="M13.8098 35.8434C23.68 39.6953 32.0796 40.4456 41.5981 34.4499C41.5283 34.5546 39.6455 37.344 34.6941 38.7736C35.7401 40.2032 37.1698 41.842 37.1698 41.842C40.3428 41.842 43.4461 40.9354 46.1309 39.192C48.2231 37.7972 49.4085 35.3913 49.1644 32.8808C48.746 28.592 47.7348 24.4078 46.1658 20.398C44.1783 15.1678 39.4014 11.5414 33.8573 11.0184C33.3691 10.9835 33.0205 10.9835 32.8112 10.9835L32.2534 11.5413C38.6343 13.3545 41.8074 16.1788 41.877 16.2835C32.079 11.3321 20.5027 11.2624 10.6349 16.0743C10.6349 16.0743 13.7731 12.971 20.7118 11.3321L20.2934 10.9137C19.5611 10.9137 18.8638 10.9835 18.1316 11.088C13.0059 11.9597 8.71716 15.4814 6.86909 20.3281C5.26512 24.5123 4.21909 28.9057 3.83557 33.3689C3.62636 35.74 4.74216 38.0762 6.69477 39.4361C9.275 41.1446 12.3434 42.0512 15.4467 42.0512C15.4467 42.0512 16.7019 40.4123 17.9573 38.9479C13.25 37.5531 11.3323 34.7637 11.2974 34.659L12.1833 35.1114C12.7129 35.3824 13.2557 35.6267 13.8098 35.8434ZM19.2823 32.8111C17.0158 32.7413 15.2375 30.8236 15.3073 28.5222C15.377 26.3604 17.1205 24.617 19.2823 24.5472C21.5487 24.617 23.327 26.5347 23.2573 28.8361C23.1526 30.998 21.4441 32.7414 19.2823 32.8111ZM33.5085 32.8111C31.2421 32.7413 29.4638 30.8236 29.5335 28.5222C29.6033 26.3604 31.3467 24.617 33.5085 24.5472C35.775 24.617 37.5533 26.5347 37.4835 28.8361C37.4139 30.998 35.6703 32.7414 33.5085 32.8111Z" fill="white"/>
</g>
</g>
</svg>
