<svg width="42" height="42" viewBox="0 0 42 42" fill="none" xmlns="http://www.w3.org/2000/svg">
<g id="Frame" clip-path="url(#clip0_4779_2486)">
<g id="Group">
<path id="Vector" d="M41.9589 12.3481C41.8605 10.1164 41.4996 8.58231 40.9826 7.25282C40.4493 5.84168 39.6288 4.57832 38.554 3.52803C37.5036 2.46142 36.2319 1.63258 34.8371 1.10764C33.5 0.59074 31.9738 0.229732 29.7422 0.13144C27.4938 0.0246142 26.7801 0 21.0778 0C15.3755 0 14.6618 0.0246142 12.4218 0.123071C10.1902 0.221528 8.65604 0.5827 7.32696 1.09927C5.91541 1.63258 4.65205 2.45305 3.60176 3.52803C2.53515 4.57824 1.70672 5.84997 1.18137 7.24478C0.664471 8.58231 0.303545 10.1082 0.20517 12.3397C0.0984267 14.5881 0.0737305 15.3018 0.0737305 21.0041C0.0737305 26.7064 0.0984267 27.4202 0.196801 29.6601C0.295258 31.8918 0.65643 33.4259 1.17341 34.7554C1.70672 36.1665 2.53515 37.4299 3.60176 38.4802C4.65205 39.5468 5.92378 40.3756 7.31859 40.9006C8.65596 41.4175 10.1819 41.7785 12.4139 41.8768C14.6534 41.9756 15.3676 41.9998 21.0699 41.9998C26.7722 41.9998 27.4859 41.9756 29.7259 41.8768C31.9575 41.7784 33.4917 41.4175 34.8208 40.9006C36.2167 40.3609 37.4844 39.5354 38.5427 38.4772C39.601 37.419 40.4265 36.1513 40.9663 34.7554C41.4829 33.4179 41.8442 31.8917 41.9425 29.6601C42.041 27.4202 42.0656 26.7064 42.0656 21.0041C42.0656 15.3018 42.0572 14.588 41.9589 12.3481ZM38.1767 29.496C38.0863 31.5472 37.7418 32.6548 37.4546 33.3932C36.7489 35.2229 35.2967 36.6751 33.467 37.3809C32.7285 37.6681 31.6129 38.0126 29.5697 38.1026C27.3545 38.2014 26.6901 38.2257 21.0862 38.2257C15.4823 38.2257 14.8096 38.2014 12.6023 38.1026C10.5511 38.0126 9.44345 37.6681 8.70502 37.3809C7.79454 37.0443 6.96578 36.511 6.293 35.8136C5.59559 35.1326 5.06229 34.3122 4.72573 33.4016C4.43856 32.6632 4.09405 31.5472 4.00404 29.5044C3.90526 27.2891 3.88097 26.6243 3.88097 21.0204C3.88097 15.4165 3.90526 14.7438 4.00404 12.5369C4.09405 10.4857 4.43856 9.37809 4.72573 8.63966C5.06229 7.72877 5.59559 6.90018 6.30136 6.22722C6.98203 5.52982 7.8025 4.99652 8.71339 4.66037C9.45182 4.3732 10.5678 4.0286 12.6106 3.93827C14.8259 3.83981 15.4907 3.8152 21.0942 3.8152C26.7064 3.8152 27.3708 3.83981 29.5781 3.93827C31.6293 4.02869 32.7369 4.37312 33.4753 4.66029C34.3858 4.99652 35.2147 5.52982 35.8874 6.22722C36.5848 6.9083 37.1181 7.72877 37.4546 8.63966C37.7418 9.37809 38.0863 10.4937 38.1767 12.5369C38.2751 14.7522 38.2997 15.4165 38.2997 21.0204C38.2997 26.6243 38.2752 27.2807 38.1767 29.496Z" fill="white"/>
<path id="Vector_2" d="M21.0778 10.2149C15.1213 10.2149 10.2886 15.0473 10.2886 21.0041C10.2886 26.9609 15.1213 31.7933 21.0778 31.7933C27.0344 31.7933 31.867 26.9609 31.867 21.0041C31.867 15.0473 27.0344 10.2149 21.0778 10.2149ZM21.0778 28.0027C17.2135 28.0027 14.079 24.8687 14.079 21.0041C14.079 17.1395 17.2135 14.0054 21.0777 14.0054C24.9423 14.0054 28.0764 17.1395 28.0764 21.0041C28.0764 24.8687 24.9422 28.0027 21.0778 28.0027ZM34.8127 9.78822C34.8127 11.1792 33.6848 12.3071 32.2935 12.3071C30.9025 12.3071 29.7747 11.1792 29.7747 9.78822C29.7747 8.39703 30.9025 7.26953 32.2936 7.26953C33.6848 7.26953 34.8127 8.39694 34.8127 9.78822Z" fill="white"/>
</g>
</g>
<defs>
<clipPath id="clip0_4779_2486">
<rect width="42" height="42" fill="white"/>
</clipPath>
</defs>
</svg>
