<svg width="25" height="25" viewBox="0 0 25 25" fill="none" xmlns="http://www.w3.org/2000/svg">
<g id="Frame">
<g id="Group">
<g id="Group_2">
<path id="Vector" d="M13.15 23.6978H11.85C3.32083 23.6978 2.34375 22.7208 2.34375 14.1916C2.34375 8.29575 3.08854 7.552 8.98333 7.552H16.0167C21.9125 7.552 22.6562 8.29679 22.6562 14.1916C22.6562 22.7208 21.6792 23.6978 13.15 23.6978ZM8.98333 9.1145C4.00104 9.1145 3.90625 9.20825 3.90625 14.1916C3.90625 21.8374 4.20313 22.1353 11.85 22.1353H13.15C20.7958 22.1353 21.0938 21.8385 21.0938 14.1916C21.0938 9.20929 20.999 9.1145 16.0167 9.1145H8.98333Z" fill="white"/>
<path id="Vector_2" d="M17.7082 9.1145H7.2915C7.0843 9.1145 6.88559 9.03219 6.73908 8.88568C6.59256 8.73917 6.51025 8.54045 6.51025 8.33325V7.29159C6.51025 3.9895 9.19775 1.302 12.4998 1.302C13.6654 1.30219 14.8056 1.64225 15.7808 2.28055C16.756 2.91885 17.5239 3.82768 17.9905 4.89575C18.066 5.08424 18.0651 5.29471 17.9881 5.48258C17.9111 5.67045 17.764 5.82096 17.5779 5.90222C17.3918 5.98347 17.1814 5.98909 16.9913 5.91789C16.8011 5.84668 16.6461 5.70424 16.5592 5.52075C16.2143 4.73112 15.6466 4.05925 14.9255 3.58745C14.2045 3.11564 13.3615 2.8644 12.4998 2.8645C11.3261 2.86588 10.2009 3.33275 9.37094 4.16269C8.541 4.99263 8.07413 6.11787 8.07275 7.29159V7.552H17.7082C17.9154 7.552 18.1141 7.63431 18.2606 7.78083C18.4071 7.92734 18.4894 8.12605 18.4894 8.33325C18.4894 8.54045 18.4071 8.73917 18.2606 8.88568C18.1141 9.03219 17.9154 9.1145 17.7082 9.1145ZM12.4998 17.4478C10.9196 17.4478 9.63525 16.1635 9.63525 14.5833C9.63525 13.003 10.9196 11.7187 12.4998 11.7187C14.08 11.7187 15.3644 13.003 15.3644 14.5833C15.3644 16.1635 14.08 17.4478 12.4998 17.4478ZM12.4998 13.2812C12.1635 13.2946 11.8454 13.4377 11.6122 13.6804C11.379 13.9231 11.2488 14.2467 11.2488 14.5833C11.2488 14.9198 11.379 15.2434 11.6122 15.4861C11.8454 15.7288 12.1635 15.8719 12.4998 15.8853C12.8362 15.8719 13.1542 15.7288 13.3874 15.4861C13.6206 15.2434 13.7509 14.9198 13.7509 14.5833C13.7509 14.2467 13.6206 13.9231 13.3874 13.6804C13.1542 13.4377 12.8362 13.2946 12.4998 13.2812Z" fill="white"/>
<path id="Vector_3" d="M12.5 19.5311C12.2928 19.5311 12.0941 19.4488 11.9476 19.3023C11.8011 19.1558 11.7188 18.957 11.7188 18.7498V16.6665C11.7188 16.4593 11.8011 16.2606 11.9476 16.1141C12.0941 15.9676 12.2928 15.8853 12.5 15.8853C12.7072 15.8853 12.9059 15.9676 13.0524 16.1141C13.1989 16.2606 13.2812 16.4593 13.2812 16.6665V18.7498C13.2812 18.957 13.1989 19.1558 13.0524 19.3023C12.9059 19.4488 12.7072 19.5311 12.5 19.5311Z" fill="white"/>
</g>
</g>
</g>
</svg>
