<svg width="27" height="27" viewBox="0 0 27 27" fill="none" xmlns="http://www.w3.org/2000/svg">
<g id="Frame">
<g id="Group">
<path id="Vector" d="M13.5 15.9974L8.95502 14.4787L13.5 12.2062L18.045 14.4787L13.5 15.9974ZM13.5 17.7299C13.408 17.7315 13.3165 17.7162 13.23 17.6849L8.52639 16.1167C8.45897 16.094 8.3861 16.0932 8.31819 16.1144C8.25029 16.1356 8.19081 16.1777 8.14827 16.2347C8.10573 16.2917 8.08229 16.3607 8.0813 16.4319C8.08031 16.503 8.10182 16.5726 8.14277 16.6308L12.7463 23.2312C12.8303 23.3535 12.9429 23.4534 13.0742 23.5225C13.2055 23.5916 13.3516 23.6277 13.5 23.6277C13.6484 23.6277 13.7946 23.5916 13.9259 23.5225C14.0572 23.4534 14.1697 23.3535 14.2538 23.2312L18.8573 16.6308C18.8982 16.5726 18.9197 16.503 18.9187 16.4319C18.9177 16.3607 18.8943 16.2917 18.8518 16.2347C18.8092 16.1777 18.7498 16.1356 18.6818 16.1144C18.6139 16.0932 18.5411 16.094 18.4736 16.1167L13.77 17.6849C13.6835 17.7162 13.592 17.7315 13.5 17.7299ZM13.8825 10.5074L18.5625 12.8463C18.627 12.8798 18.7006 12.8916 18.7723 12.88C18.844 12.8683 18.9101 12.8339 18.9606 12.7817C19.0112 12.7295 19.0435 12.6623 19.0529 12.5903C19.0622 12.5182 19.0481 12.445 19.0125 12.3817L14.31 3.84742C14.229 3.70397 14.1112 3.58461 13.9689 3.50156C13.8266 3.41852 13.6648 3.37476 13.5 3.37476C13.3352 3.37476 13.1734 3.41852 13.0311 3.50156C12.8888 3.58461 12.7711 3.70397 12.69 3.84742L7.98752 12.3817C7.95195 12.445 7.93779 12.5182 7.94714 12.5903C7.95649 12.6623 7.98885 12.7295 8.0394 12.7817C8.08996 12.8339 8.15601 12.8683 8.22774 12.88C8.29947 12.8916 8.37304 12.8798 8.43752 12.8463L13.1175 10.5074C13.2374 10.4518 13.3679 10.423 13.5 10.423C13.6321 10.423 13.7627 10.4518 13.8825 10.5074Z" fill="white"/>
</g>
</g>
</svg>
