<svg width="45" height="45" viewBox="0 0 45 45" fill="none" xmlns="http://www.w3.org/2000/svg">
<g id="Frame">
<g id="Group">
<path id="Vector" d="M42.2156 11.2843C39.6474 11.2843 37.2779 10.4335 35.3751 8.99827C33.1927 7.35295 31.6248 4.93948 31.071 2.15774C30.9322 1.4583 30.8592 0.747372 30.8531 0.0343018H23.5169V20.0804L23.5081 31.0606C23.5081 33.9961 21.5964 36.4852 18.9465 37.3606C18.1528 37.623 17.3168 37.7339 16.4821 37.6875C15.3782 37.6269 14.3437 37.2938 13.4446 36.7559C11.5312 35.6115 10.2339 33.5356 10.1988 31.1608C10.1434 27.4491 13.144 24.4231 16.853 24.4231C17.5851 24.4231 18.2882 24.5426 18.9465 24.7597V17.311C18.2522 17.2081 17.5456 17.1545 16.831 17.1545C12.7713 17.1545 8.97447 18.842 6.26041 21.8822C4.20904 24.1796 2.97857 27.1108 2.78873 30.1843C2.54 34.222 4.01744 38.0602 6.88267 40.892C7.30367 41.3077 7.74576 41.6936 8.20806 42.0495C10.6646 43.9401 13.6678 44.9649 16.831 44.9649C17.5456 44.9649 18.2522 44.9121 18.9465 44.8093C21.9014 44.3716 24.6278 43.019 26.7794 40.892C29.4231 38.279 30.8838 34.81 30.8997 31.1177L30.8619 14.7208C32.1261 15.6959 33.511 16.5036 34.9822 17.1238C37.284 18.0949 39.7248 18.5871 42.2367 18.5863V11.2825C42.2384 11.2843 42.2173 11.2843 42.2156 11.2843Z" fill="white"/>
</g>
</g>
</svg>
